<svg width="20" height="20" viewBox="0 0 20 20" fill="none" xmlns="http://www.w3.org/2000/svg">
<path fill-rule="evenodd" clip-rule="evenodd" d="M20 3.7037C20 4.68599 19.6001 5.62804 18.8882 6.32262C18.1763 7.0172 17.2108 7.40741 16.2041 7.40741C15.1973 7.40741 14.2318 7.0172 13.5199 6.32262C12.8081 5.62804 12.4081 4.68599 12.4081 3.7037C12.4081 2.72142 12.8081 1.77937 13.5199 1.08479C14.2318 0.39021 15.1973 0 16.2041 0C17.2108 0 18.1763 0.39021 18.8882 1.08479C19.6001 1.77937 20 2.72142 20 3.7037ZM11.2086 1.03259C10.1642 0.724018 9.06023 0.658355 7.98512 0.840863C6.91001 1.02337 5.89364 1.44898 5.0174 2.0836C4.14117 2.71822 3.42941 3.54423 2.93913 4.49546C2.44886 5.4467 2.19368 6.49674 2.19405 7.56148V12.5585C2.19405 12.6937 2.16675 12.8276 2.11372 12.9525C2.06069 13.0775 1.98296 13.191 1.88497 13.2866C1.78698 13.3822 1.67064 13.458 1.54261 13.5098C1.41458 13.5615 1.27736 13.5881 1.13878 13.5881C0.836756 13.5881 0.547103 13.7052 0.333541 13.9136C0.119978 14.122 0 14.4046 0 14.6993C0 14.9939 0.119978 15.2766 0.333541 15.4849C0.547103 15.6933 0.836756 15.8104 1.13878 15.8104H17.232C17.534 15.8104 17.8237 15.6933 18.0372 15.4849C18.2508 15.2766 18.3708 14.9939 18.3708 14.6993C18.3708 14.4046 18.2508 14.122 18.0372 13.9136C17.8237 13.7052 17.534 13.5881 17.232 13.5881C16.9521 13.5881 16.6837 13.4797 16.4858 13.2866C16.2879 13.0935 16.1767 12.8316 16.1767 12.5585V9.25926C15.19 9.25513 14.2212 9.00084 13.3655 8.52135C12.5098 8.04185 11.7965 7.35359 11.2955 6.52407C10.7946 5.69455 10.5232 4.75224 10.508 3.78955C10.4927 2.82685 10.7342 1.87681 11.2086 1.03259ZM6.529 18.8889C6.529 18.5942 6.64898 18.3116 6.86254 18.1032C7.0761 17.8948 7.36576 17.7778 7.66778 17.7778H10.7045C11.0065 17.7778 11.2962 17.8948 11.5098 18.1032C11.7233 18.3116 11.8433 18.5942 11.8433 18.8889C11.8433 19.1836 11.7233 19.4662 11.5098 19.6746C11.2962 19.8829 11.0065 20 10.7045 20H7.66778C7.36576 20 7.0761 19.8829 6.86254 19.6746C6.64898 19.4662 6.529 19.1836 6.529 18.8889Z" fill="#7469B6"/>
</svg>
