<svg width="25" height="20" viewBox="0 0 25 20" fill="none" xmlns="http://www.w3.org/2000/svg">
<path d="M0.9125 0.357424C1.0271 0.180716 1.20555 0.0578492 1.40861 0.0158443C1.61167 -0.0261606 1.82271 0.0161354 1.99531 0.133431L4.33906 1.73498C4.50485 1.85535 4.6183 2.03713 4.65534 2.24175C4.69239 2.44637 4.6501 2.65772 4.53746 2.83093C4.42482 3.00415 4.25069 3.1256 4.05204 3.16952C3.85338 3.21343 3.64583 3.17635 3.47344 3.06614L1.12969 1.46619C0.957369 1.34859 0.837697 1.16574 0.796972 0.957838C0.756247 0.749931 0.7978 0.533974 0.9125 0.357424ZM12.5 0.000635601C10.6352 0.000635601 8.84677 0.759181 7.52816 2.1094C6.20954 3.45962 5.46875 5.29091 5.46875 7.20041V11.0419L3.9625 14.9026C3.915 15.0239 3.89727 15.1554 3.91088 15.2854C3.92449 15.4154 3.96901 15.54 4.04056 15.6483C4.1121 15.7567 4.20849 15.8454 4.32127 15.9067C4.43405 15.968 4.5598 16.0001 4.6875 16.0001H20.3125C20.44 16 20.5655 15.9679 20.6781 15.9067C20.7908 15.8454 20.887 15.7569 20.9585 15.6488C21.03 15.5407 21.0746 15.4163 21.0884 15.2865C21.1021 15.1567 21.0847 15.0255 21.0375 14.9042L19.5312 11.0403V7.20041C19.5312 5.29091 18.7905 3.45962 17.4718 2.1094C16.1532 0.759181 14.3648 0.000635601 12.5 0.000635601ZM12.5 20C11.8071 20.0002 11.1337 19.7645 10.5859 19.3301C10.038 18.8957 9.64667 18.2871 9.47344 17.6001H15.5266C15.3533 18.2871 14.962 18.8957 14.4141 19.3301C13.8663 19.7645 13.1929 20.0002 12.5 20ZM23.0047 0.135032C23.1771 0.0248215 23.3846 -0.012262 23.5833 0.0316515C23.7819 0.0755651 23.9561 0.197019 24.0687 0.370236C24.1813 0.543453 24.2236 0.754798 24.1866 0.959417C24.1496 1.16404 24.0361 1.34582 23.8703 1.46619L21.5266 3.06614C21.3542 3.17635 21.1466 3.21343 20.948 3.16952C20.7493 3.1256 20.5752 3.00415 20.4625 2.83093C20.3499 2.65772 20.3076 2.44637 20.3447 2.24175C20.3817 2.03713 20.4952 1.85535 20.6609 1.73498L23.0047 0.135032ZM0 7.20041C0 6.98824 0.08231 6.78476 0.228823 6.63474C0.375336 6.48471 0.57405 6.40043 0.78125 6.40043H3.125C3.3322 6.40043 3.53091 6.48471 3.67743 6.63474C3.82394 6.78476 3.90625 6.98824 3.90625 7.20041C3.90625 7.41257 3.82394 7.61605 3.67743 7.76607C3.53091 7.9161 3.3322 8.00038 3.125 8.00038H0.78125C0.57405 8.00038 0.375336 7.9161 0.228823 7.76607C0.08231 7.61605 0 7.41257 0 7.20041ZM24.2188 6.40043C24.426 6.40043 24.6247 6.48471 24.7712 6.63474C24.9177 6.78476 25 6.98824 25 7.20041C25 7.41257 24.9177 7.61605 24.7712 7.76607C24.6247 7.9161 24.426 8.00038 24.2188 8.00038H21.875C21.6678 8.00038 21.4691 7.9161 21.3226 7.76607C21.1761 7.61605 21.0938 7.41257 21.0938 7.20041C21.0938 6.98824 21.1761 6.78476 21.3226 6.63474C21.4691 6.48471 21.6678 6.40043 21.875 6.40043H24.2188Z" fill="black"/>
</svg>
