<svg width="32" height="32" viewBox="0 0 32 32" fill="none" xmlns="http://www.w3.org/2000/svg">
<path d="M7.66667 4.15625H4.33333C3.44928 4.15625 2.60143 4.48896 1.97631 5.08118C1.35119 5.6734 1 6.47662 1 7.31414V26.2615C1 27.099 1.35119 27.9023 1.97631 28.4945C2.60143 29.0867 3.44928 29.4194 4.33333 29.4194H13.8283M24.3333 18.3668V24.6826H31M24.3333 13.6299V7.31414C24.3333 6.47662 23.9821 5.6734 23.357 5.08118C22.7319 4.48896 21.8841 4.15625 21 4.15625H17.6667" stroke="#7469B6" stroke-width="2" stroke-linecap="round" stroke-linejoin="round"/>
<path d="M7.66699 13.6316H14.3337M7.66699 19.9474H12.667M7.66699 4.15789C7.66699 3.32037 8.01818 2.51715 8.6433 1.92493C9.26842 1.33271 10.1163 1 11.0003 1H14.3337C15.2177 1 16.0656 1.33271 16.6907 1.92493C17.3158 2.51715 17.667 3.32037 17.667 4.15789C17.667 4.99542 17.3158 5.79864 16.6907 6.39086C16.0656 6.98308 15.2177 7.31579 14.3337 7.31579H11.0003C10.1163 7.31579 9.26842 6.98308 8.6433 6.39086C8.01818 5.79864 7.66699 4.99542 7.66699 4.15789ZM17.667 24.6842C17.667 26.3593 18.3694 27.9657 19.6196 29.1501C20.8699 30.3346 22.5655 31 24.3337 31C26.1018 31 27.7975 30.3346 29.0477 29.1501C30.2979 27.9657 31.0003 26.3593 31.0003 24.6842C31.0003 23.0092 30.2979 21.4027 29.0477 20.2183C27.7975 19.0338 26.1018 18.3684 24.3337 18.3684C22.5655 18.3684 20.8699 19.0338 19.6196 20.2183C18.3694 21.4027 17.667 23.0092 17.667 24.6842Z" stroke="#7469B6" stroke-width="2" stroke-linecap="round" stroke-linejoin="round"/>
</svg>
