<svg width="30" height="30" viewBox="0 0 30 30" fill="none" xmlns="http://www.w3.org/2000/svg">
<path d="M26.5763 25.3616H26.0343L25.8422 25.1687C26.5379 24.3282 26.9202 23.2552 26.9194 22.1455C26.9194 21.2267 26.6578 20.3286 26.1678 19.5646C25.6778 18.8007 24.9812 18.2052 24.1663 17.8536C23.3514 17.502 22.4547 17.41 21.5896 17.5893C20.7246 17.7685 19.9299 18.211 19.3062 18.8606C18.6825 19.5103 18.2578 20.3381 18.0857 21.2392C17.9136 22.1404 18.0019 23.0744 18.3395 23.9233C18.677 24.7721 19.2486 25.4977 19.982 26.0081C20.7154 26.5186 21.5776 26.791 22.4597 26.791C23.5643 26.791 24.5798 26.3694 25.3619 25.669L25.5472 25.8691V26.4337L28.9777 30L30 28.9351L26.5763 25.3616ZM22.4597 25.3616C20.7513 25.3616 19.3722 23.9251 19.3722 22.1455C19.3722 20.3659 20.7513 18.9294 22.4597 18.9294C24.1681 18.9294 25.5472 20.3659 25.5472 22.1455C25.5472 23.9251 24.1681 25.3616 22.4597 25.3616Z" fill="#7469B6"/>
<path d="M19.3333 12.5C18.8029 12.5 18.2942 12.2805 17.9191 11.8898C17.544 11.4991 17.3333 10.9692 17.3333 10.4167C17.3333 9.86413 17.544 9.33423 17.9191 8.94353C18.2942 8.55283 18.8029 8.33333 19.3333 8.33333C19.8638 8.33333 20.3725 8.55283 20.7475 8.94353C21.1226 9.33423 21.3333 9.86413 21.3333 10.4167C21.3333 10.9692 21.1226 11.4991 20.7475 11.8898C20.3725 12.2805 19.8638 12.5 19.3333 12.5ZM15.3333 6.94444C14.8029 6.94444 14.2942 6.72495 13.9191 6.33425C13.544 5.94355 13.3333 5.41365 13.3333 4.86111C13.3333 4.30858 13.544 3.77867 13.9191 3.38797C14.2942 2.99727 14.8029 2.77778 15.3333 2.77778C15.8638 2.77778 16.3725 2.99727 16.7475 3.38797C17.1226 3.77867 17.3333 4.30858 17.3333 4.86111C17.3333 5.41365 17.1226 5.94355 16.7475 6.33425C16.3725 6.72495 15.8638 6.94444 15.3333 6.94444ZM8.66667 6.94444C8.13623 6.94444 7.62753 6.72495 7.25245 6.33425C6.87738 5.94355 6.66667 5.41365 6.66667 4.86111C6.66667 4.30858 6.87738 3.77867 7.25245 3.38797C7.62753 2.99727 8.13623 2.77778 8.66667 2.77778C9.1971 2.77778 9.70581 2.99727 10.0809 3.38797C10.456 3.77867 10.6667 4.30858 10.6667 4.86111C10.6667 5.41365 10.456 5.94355 10.0809 6.33425C9.70581 6.72495 9.1971 6.94444 8.66667 6.94444ZM4.66667 12.5C4.13623 12.5 3.62753 12.2805 3.25245 11.8898C2.87738 11.4991 2.66667 10.9692 2.66667 10.4167C2.66667 9.86413 2.87738 9.33423 3.25245 8.94353C3.62753 8.55283 4.13623 8.33333 4.66667 8.33333C5.1971 8.33333 5.70581 8.55283 6.08088 8.94353C6.45595 9.33423 6.66667 9.86413 6.66667 10.4167C6.66667 10.9692 6.45595 11.4991 6.08088 11.8898C5.70581 12.2805 5.1971 12.5 4.66667 12.5ZM12 0C8.8174 0 5.76516 1.31696 3.51472 3.66116C1.26428 6.00537 0 9.18479 0 12.5C0 15.8152 1.26428 18.9946 3.51472 21.3388C5.76516 23.683 8.8174 25 12 25C12.5304 25 13.0391 24.7805 13.4142 24.3898C13.7893 23.9991 14 23.4692 14 22.9167C14 22.375 13.8 21.8889 13.48 21.5278C13.1733 21.1528 12.9733 20.6667 12.9733 20.1389C12.9733 19.5864 13.184 19.0565 13.5591 18.6658C13.9342 18.275 14.4429 18.0556 14.9733 18.0556H17.3333C19.1014 18.0556 20.7971 17.3239 22.0474 16.0216C23.2976 14.7192 24 12.9529 24 11.1111C24 4.97222 18.6267 0 12 0Z" fill="#7469B6"/>
</svg>
