<svg width="30" height="30" viewBox="0 0 30 30" fill="none" xmlns="http://www.w3.org/2000/svg">
<path d="M20.7142 13.9162C20.7142 13.6323 20.6013 13.36 20.4003 13.1592C20.1994 12.9585 19.9269 12.8457 19.6427 12.8457C19.3586 12.8457 19.086 12.9585 18.8851 13.1592C18.6842 13.36 18.5713 13.6323 18.5713 13.9162V16.7708C18.5713 17.0547 18.6842 17.327 18.8851 17.5277C19.086 17.7285 19.3586 17.8412 19.6427 17.8412C19.9269 17.8412 20.1994 17.7285 20.4003 17.5277C20.6013 17.327 20.7142 17.0547 20.7142 16.7708V13.9162ZM15.357 12.8457C15.6412 12.8457 15.9137 12.9585 16.1146 13.1592C16.3156 13.36 16.4284 13.6323 16.4284 13.9162V16.7708C16.4284 17.0547 16.3156 17.327 16.1146 17.5277C15.9137 17.7285 15.6412 17.8412 15.357 17.8412C15.0729 17.8412 14.8003 17.7285 14.5994 17.5277C14.3985 17.327 14.2856 17.0547 14.2856 16.7708V13.9162C14.2856 13.6323 14.3985 13.36 14.5994 13.1592C14.8003 12.9585 15.0729 12.8457 15.357 12.8457ZM12.1427 13.9162C12.1423 13.6503 12.0429 13.3941 11.8638 13.1975C11.6847 13.0009 11.4388 12.8778 11.1739 12.8524C10.9091 12.8269 10.6442 12.9008 10.4309 13.0597C10.2176 13.2186 10.071 13.4512 10.0199 13.7121C10.817 14.1217 11.5342 14.6627 12.1427 15.3078V13.9162ZM18.2142 21.4095H14.2542C14.1875 22.1433 14.0177 22.864 13.7499 23.5504H17.1427V26.405H15.6784L16.4113 27.1373C16.8084 27.5326 17.0442 28.0307 17.1184 28.546H28.9284C29.2126 28.546 29.4851 28.4332 29.6861 28.2325C29.887 28.0317 29.9999 27.7594 29.9999 27.4755V18.9117C29.9999 18.06 29.6612 17.2432 29.0584 16.6409C28.4556 16.0386 27.6381 15.7003 26.7856 15.7003H25.7142C25.7141 13.1741 24.7562 10.7416 23.0334 8.89262C21.3105 7.04362 18.9505 5.91534 16.4284 5.73489V4.2819H20.7142C20.9036 4.2819 21.0853 4.20671 21.2192 4.07288C21.3532 3.93904 21.4284 3.75752 21.4284 3.56825V0.71365C21.4284 0.524378 21.3532 0.342859 21.2192 0.209023C21.0853 0.075188 20.9036 0 20.7142 0H15.357C15.0729 0 14.8003 0.112782 14.5994 0.313535C14.3985 0.514288 14.2856 0.786567 14.2856 1.07047V5.80911C12.3953 6.08345 10.6229 6.89222 9.1776 8.14C7.73228 9.38779 6.6743 11.0225 6.12844 12.8514C6.86182 12.8226 7.59562 12.8966 8.30844 13.0712C8.9306 11.3291 10.1483 9.86234 11.7469 8.92939C13.3454 7.99645 15.2223 7.65721 17.0467 7.97147C18.8711 8.28573 20.526 9.23332 21.7196 10.6472C22.9132 12.0611 23.5689 13.8506 23.5713 15.7003V16.7708C23.5713 17.3617 24.0513 17.8412 24.6427 17.8412H26.7856C27.0697 17.8412 27.3423 17.954 27.5432 18.1548C27.7441 18.3555 27.857 18.6278 27.857 18.9117V26.405H19.2856V22.48C19.2856 22.1961 19.1727 21.9238 18.9718 21.723C18.7708 21.5223 18.4983 21.4095 18.2142 21.4095ZM25.7142 20.339C25.7142 20.0551 25.6013 19.7828 25.4003 19.5821C25.1994 19.3813 24.9269 19.2685 24.6427 19.2685C24.3586 19.2685 24.086 19.3813 23.8851 19.5821C23.6842 19.7828 23.5713 20.0551 23.5713 20.339V23.9073C23.5713 24.1912 23.6842 24.4635 23.8851 24.6642C24.086 24.865 24.3586 24.9777 24.6427 24.9777C24.9269 24.9777 25.1994 24.865 25.4003 24.6642C25.6013 24.4635 25.7142 24.1912 25.7142 23.9073V20.339ZM6.42845 27.1187C7.76316 27.1187 9.06479 26.7037 10.1527 25.9312L13.8856 29.6593C13.9837 29.7645 14.102 29.8488 14.2334 29.9073C14.3648 29.9658 14.5067 29.9973 14.6506 29.9998C14.7944 30.0024 14.9373 29.9759 15.0707 29.9221C15.2041 29.8683 15.3253 29.7881 15.4271 29.6865C15.5288 29.5848 15.609 29.4637 15.6629 29.3304C15.7168 29.1971 15.7433 29.0544 15.7407 28.9106C15.7382 28.7669 15.7067 28.6252 15.6481 28.4938C15.5896 28.3625 15.5051 28.2444 15.3999 28.1464L11.6684 24.4168C12.5033 23.2432 12.9193 21.8234 12.8496 20.3853C12.7799 18.9471 12.2286 17.5741 11.2842 16.4866C10.3397 15.399 9.05695 14.6601 7.64174 14.3884C6.22652 14.1167 4.76098 14.328 3.48036 14.9883C2.19974 15.6486 1.17832 16.7197 0.580087 18.0296C-0.0181505 19.3395 -0.158514 20.8122 0.18153 22.2114C0.521573 23.6106 1.3223 24.855 2.45517 25.7449C3.58804 26.6349 4.98734 27.1187 6.42845 27.1187ZM6.42845 24.9777C5.2918 24.9777 4.20171 24.5266 3.39799 23.7236C2.59426 22.9206 2.14273 21.8315 2.14273 20.6958C2.14273 19.5602 2.59426 18.4711 3.39799 17.6681C4.20171 16.8651 5.2918 16.4139 6.42845 16.4139C7.56509 16.4139 8.65518 16.8651 9.4589 17.6681C10.2626 18.4711 10.7142 19.5602 10.7142 20.6958C10.7142 21.8315 10.2626 22.9206 9.4589 23.7236C8.65518 24.5266 7.56509 24.9777 6.42845 24.9777Z" fill="#C9C9C9"/>
</svg>
