<svg width="80" height="80" viewBox="0 0 80 80" fill="none" xmlns="http://www.w3.org/2000/svg">
<path fill-rule="evenodd" clip-rule="evenodd" d="M40 8C34.403 7.99897 28.9037 9.46595 24.0509 12.2545C19.1981 15.0431 15.1615 19.0557 12.3441 23.8918C9.52669 28.7279 8.027 34.2185 7.9947 39.8153C7.9624 45.4122 9.39863 50.9197 12.16 55.788C14.0265 53.3623 16.4257 51.3983 19.1724 50.0479C21.919 48.6975 24.9394 47.9968 28 48H52C55.0606 47.9968 58.081 48.6975 60.8276 50.0479C63.5743 51.3983 65.9735 53.3623 67.84 55.788C70.6014 50.9197 72.0376 45.4122 72.0053 39.8153C71.973 34.2185 70.4733 28.7279 67.6559 23.8918C64.8385 19.0557 60.802 15.0431 55.9491 12.2545C51.0963 9.46595 45.597 7.99897 40 8ZM71.772 64.304C72.2733 63.6507 72.7533 62.9813 73.212 62.296C77.6465 55.7068 80.0103 47.9425 80 40C80 17.908 62.092 0 40 0C17.908 0 4.10218e-05 17.908 4.10218e-05 40C-0.0125643 48.787 2.8802 57.3317 8.22803 64.304L8.20803 64.376L9.62803 66.028C13.3796 70.414 18.0376 73.9344 23.2809 76.3465C28.5243 78.7587 34.2284 80.0051 40 80C40.864 80 41.7227 79.9733 42.576 79.92C49.7936 79.4649 56.7507 77.0518 62.7 72.94C65.5452 70.9772 68.124 68.6538 70.372 66.028L71.792 64.376L71.772 64.304ZM40 16C36.8174 16 33.7652 17.2643 31.5147 19.5147C29.2643 21.7652 28 24.8174 28 28C28 31.1826 29.2643 34.2348 31.5147 36.4853C33.7652 38.7357 36.8174 40 40 40C43.1826 40 46.2348 38.7357 48.4853 36.4853C50.7357 34.2348 52 31.1826 52 28C52 24.8174 50.7357 21.7652 48.4853 19.5147C46.2348 17.2643 43.1826 16 40 16Z" fill="black"/>
</svg>
